<svg width="25" height="25" viewBox="0 0 25 25" fill="none" xmlns="http://www.w3.org/2000/svg">
<path d="M8.04004 2.01447L8.03461 5.01446" stroke="#2078FF" stroke-width="1.5" stroke-miterlimit="10" stroke-linecap="round" stroke-linejoin="round"/>
<path d="M16.04 2.02893L16.0346 5.02893" stroke="#2078FF" stroke-width="1.5" stroke-miterlimit="10" stroke-linecap="round" stroke-linejoin="round"/>
<path d="M3.52686 9.09631L20.5268 9.12705" stroke="#2078FF" stroke-width="1.5" stroke-miterlimit="10" stroke-linecap="round" stroke-linejoin="round"/>
<path d="M21.028 8.53797L21.0127 17.038C21.0072 20.038 19.5036 22.0352 16.0036 22.0289L8.00365 22.0144C4.50365 22.0081 3.00727 20.0054 3.0127 17.0054L3.02807 8.50542C3.03349 5.50543 4.53711 3.50814 8.0371 3.51447L16.0371 3.52894C19.5371 3.53527 21.0335 5.53798 21.028 8.53797Z" stroke="#2078FF" stroke-width="1.5" stroke-miterlimit="10" stroke-linecap="round" stroke-linejoin="round"/>
<path d="M15.7133 13.7284L15.7223 13.7284" stroke="#2078FF" stroke-width="1.5" stroke-linecap="round" stroke-linejoin="round"/>
<path d="M15.708 16.7284L15.7169 16.7284" stroke="#2078FF" stroke-width="1.5" stroke-linecap="round" stroke-linejoin="round"/>
<path d="M12.0141 13.7217L12.0231 13.7217" stroke="#2078FF" stroke-width="1.5" stroke-linecap="round" stroke-linejoin="round"/>
<path d="M12.0087 16.7217L12.0177 16.7217" stroke="#2078FF" stroke-width="1.5" stroke-linecap="round" stroke-linejoin="round"/>
<path d="M8.31294 13.715L8.32192 13.715" stroke="#2078FF" stroke-width="1.5" stroke-linecap="round" stroke-linejoin="round"/>
<path d="M8.30757 16.715L8.31655 16.715" stroke="#2078FF" stroke-width="1.5" stroke-linecap="round" stroke-linejoin="round"/>
</svg>
