<svg width="20" height="20" viewBox="0 0 20 20" fill="none" xmlns="http://www.w3.org/2000/svg">
<path d="M12.0832 3.33331H7.9165L5.83317 5.83331H3.33317C2.89114 5.83331 2.46722 6.00891 2.15466 6.32147C1.8421 6.63403 1.6665 7.05795 1.6665 7.49998V15C1.6665 15.442 1.8421 15.8659 2.15466 16.1785C2.46722 16.4911 2.89114 16.6666 3.33317 16.6666H16.6665C17.1085 16.6666 17.5325 16.4911 17.845 16.1785C18.1576 15.8659 18.3332 15.442 18.3332 15V7.49998C18.3332 7.05795 18.1576 6.63403 17.845 6.32147C17.5325 6.00891 17.1085 5.83331 16.6665 5.83331H14.1665L12.0832 3.33331Z" stroke="#FF8D28" stroke-width="2" stroke-linecap="round" stroke-linejoin="round"/>
<path d="M10 13.3333C11.3807 13.3333 12.5 12.214 12.5 10.8333C12.5 9.4526 11.3807 8.33331 10 8.33331C8.61929 8.33331 7.5 9.4526 7.5 10.8333C7.5 12.214 8.61929 13.3333 10 13.3333Z" stroke="#FF8D28" stroke-width="2" stroke-linecap="round" stroke-linejoin="round"/>
</svg>
