<svg width="34" height="34" viewBox="0 0 34 34" fill="none" xmlns="http://www.w3.org/2000/svg">
<g clip-path="url(#clip0_379_14083)">
<path d="M27.7529 8.24498L33.5329 2.46498C33.665 2.33289 33.7698 2.17608 33.8412 2.0035C33.9127 1.83092 33.9495 1.64595 33.9495 1.45915C33.9495 1.27234 33.9127 1.08737 33.8412 0.914792C33.7698 0.742211 33.665 0.5854 33.5329 0.453312C33.4008 0.321224 33.244 0.216446 33.0714 0.144961C32.8988 0.0734752 32.7139 0.0366821 32.5271 0.0366821C32.3402 0.0366821 32.1553 0.0734752 31.9827 0.144961C31.8101 0.216446 31.6533 0.321224 31.5212 0.453312L30.1046 1.86998L0.623722 31.3508L0.439555 31.535C0.306773 31.6667 0.201382 31.8234 0.129459 31.996C0.057537 32.1686 0.0205078 32.3538 0.0205078 32.5408C0.0205078 32.7278 0.057537 32.913 0.129459 33.0856C0.201382 33.2583 0.306773 33.415 0.439555 33.5466C0.69296 33.8206 1.04423 33.9835 1.41706 34C1.6035 34.0011 1.78832 33.9653 1.96092 33.8948C2.13353 33.8243 2.29052 33.7204 2.42289 33.5891L9.95955 26.0525C12.0644 27.2874 14.4475 27.9697 16.8871 28.0358H17.1137C23.2337 28.1775 29.3396 23.0916 33.0229 18.2891C33.5088 17.6226 33.7706 16.819 33.7706 15.9941C33.7706 15.1693 33.5088 14.3657 33.0229 13.6991C31.4931 11.6748 29.7235 9.84338 27.7529 8.24498ZM22.2704 13.7133C22.631 14.45 22.8199 15.2589 22.8229 16.0791C22.8191 17.5495 22.2324 18.9584 21.1914 19.9968C20.1503 21.0352 18.7399 21.6183 17.2696 21.6183C16.4513 21.6118 15.6442 21.4281 14.9037 21.08L22.2704 13.7133Z" fill="black"/>
<path d="M5.12887 22.4683C5.36971 22.695 5.65304 22.9358 5.92221 23.1625L23.5597 5.525C21.5875 4.49126 19.3972 3.94248 17.1705 3.92417C11.0505 3.79667 4.93054 8.86834 1.26137 13.6567C0.771254 14.3215 0.506836 15.1257 0.506836 15.9517C0.506836 16.7776 0.771254 17.5819 1.26137 18.2467C2.41883 19.7691 3.71342 21.1822 5.12887 22.4683ZM14.8472 8.30167C15.1274 8.30167 15.4013 8.38476 15.6343 8.54042C15.8672 8.69609 16.0488 8.91734 16.156 9.1762C16.2633 9.43506 16.2913 9.71991 16.2367 9.99471C16.182 10.2695 16.0471 10.5219 15.8489 10.7201C15.6508 10.9182 15.3984 11.0531 15.1236 11.1078C14.8488 11.1624 14.5639 11.1344 14.3051 11.0272C14.0462 10.9199 13.825 10.7384 13.6693 10.5054C13.5136 10.2724 13.4305 9.99853 13.4305 9.71834C13.4287 9.53111 13.4639 9.34537 13.5343 9.17185C13.6046 8.99833 13.7087 8.84049 13.8404 8.70743C13.9722 8.57438 14.129 8.46876 14.3018 8.39668C14.4746 8.3246 14.66 8.28749 14.8472 8.2875V8.30167ZM10.1864 12.5517C10.4666 12.5517 10.7405 12.6348 10.9734 12.7904C11.2064 12.9461 11.388 13.1673 11.4952 13.4262C11.6024 13.6851 11.6305 13.9699 11.5758 14.2447C11.5212 14.5195 11.3862 14.7719 11.1881 14.9701C10.99 15.1682 10.7376 15.3031 10.4628 15.3578C10.1879 15.4124 9.9031 15.3844 9.64424 15.2772C9.38538 15.1699 9.16412 14.9884 9.00846 14.7554C8.85279 14.5224 8.76971 14.2485 8.76971 13.9683C8.76971 13.5926 8.91896 13.2323 9.18464 12.9666C9.45032 12.7009 9.81065 12.5517 10.1864 12.5517Z" fill="black"/>
</g>
<defs>
<clipPath id="clip0_379_14083">
<rect width="34" height="34" fill="white"/>
</clipPath>
</defs>
</svg>
