<svg width="22" height="22" viewBox="0 0 22 22" fill="none" xmlns="http://www.w3.org/2000/svg">
<path d="M17.4805 11.3027C18.1396 10.9107 18.9544 10.8982 19.625 11.2705C19.9047 11.4259 20.1521 11.6795 20.4326 11.9668L20.5596 12.0967C20.8418 12.3843 21.0885 12.6357 21.2393 12.9189C21.5975 13.5923 21.5857 14.4066 21.208 15.0693C21.0491 15.3481 20.7952 15.5921 20.5049 15.8711L16.1143 20.0996C15.5323 20.661 15.0918 21.0865 14.5283 21.3066C13.9632 21.5273 13.3538 21.5108 12.5537 21.4893L12.2734 21.4814C12.157 21.4785 12.0024 21.4745 11.8682 21.4521C11.7003 21.4241 11.4522 21.3513 11.252 21.124C11.054 20.8993 11.0112 20.6469 11.002 20.4814C10.9944 20.3461 11.0072 20.1916 11.0166 20.0723L11.0391 19.7822C11.0934 19.0796 11.1339 18.555 11.3428 18.0742C11.5522 17.5923 11.9072 17.2078 12.3809 16.6953L16.6943 12.0225C16.9664 11.7269 17.2056 11.4663 17.4805 11.3027ZM8.14551 12.1123C9.20918 11.9623 10.2908 11.9623 11.3545 12.1123C11.9483 12.1961 12.5374 12.3265 13.1143 12.5039C13.484 12.6176 13.6688 12.6751 13.7119 12.835C13.755 12.9948 13.6191 13.1424 13.3467 13.4375L11.2109 15.751C10.7924 16.2027 10.2799 16.7561 9.9668 17.4766C9.65529 18.1935 9.59783 18.9464 9.55078 19.5654L9.50488 20.5645L9.50684 20.6035C9.53926 21.0737 9.55545 21.3088 9.4668 21.4043C9.37785 21.4996 9.1851 21.5 8.7998 21.5H5.34082C3.52262 21.4999 2.11671 20.6053 0.945312 19.4893C0.266505 18.8424 -0.0720501 18.1146 0.0126953 17.3389C0.092441 16.6093 0.531496 16.0134 0.993164 15.5615C1.73132 14.8391 2.80877 14.2312 3.52148 13.8291C3.68407 13.7374 3.82807 13.6561 3.94434 13.5869C5.24909 12.8101 6.68116 12.3188 8.14551 12.1123ZM10.75 0C13.6495 0 16 2.3505 16 5.25C16 8.14949 13.6495 10.5 10.75 10.5C7.85067 10.4998 5.5 8.14938 5.5 5.25C5.5 2.35062 7.85067 0.000190692 10.75 0Z" fill="#A1A1A1"/>
</svg>
