<svg width="24" height="18" viewBox="0 0 24 18" fill="none" xmlns="http://www.w3.org/2000/svg">
<path d="M7.43978 11.2236C10.0775 9.59259 13.4231 9.59258 16.0609 11.2236C16.1386 11.2717 16.2369 11.3294 16.3499 11.3955C16.8622 11.6953 17.6759 12.1713 18.2308 12.7354C18.5792 13.0895 18.9271 13.5721 18.9906 14.1738C19.0584 14.818 18.7846 15.4147 18.263 15.9307C17.4015 16.783 16.3342 17.4999 14.9349 17.5H8.56575C7.16641 17.5 6.09921 16.783 5.23763 15.9307C4.71606 15.4147 4.44229 14.818 4.51009 14.1738C4.57354 13.572 4.92145 13.0895 5.26985 12.7354C5.82462 12.1715 6.63744 11.6953 7.14974 11.3955C7.26291 11.3293 7.36201 11.2717 7.43978 11.2236ZM16.2962 9.17676C17.9414 8.77128 19.7038 9.06319 21.181 10.0527C21.236 10.0896 21.3075 10.1356 21.3909 10.1885C21.7824 10.4363 22.4359 10.8498 22.8792 11.3379C23.1602 11.6473 23.4415 12.0712 23.4925 12.5967C23.5468 13.1562 23.328 13.6799 22.9036 14.1348C22.3359 14.7433 21.6432 15.3012 20.6195 15.457C20.3805 15.4934 20.2606 15.5117 20.1888 15.4375C20.117 15.3631 20.1439 15.221 20.1976 14.9375C20.2513 14.654 20.2665 14.3547 20.2337 14.043C20.1274 13.0339 19.5566 12.2999 19.1224 11.8584C18.4494 11.1744 17.5174 10.629 17.0228 10.3398C16.8161 10.212 16.5344 10.0513 16.2474 9.89746C15.8691 9.69471 15.6798 9.59322 15.6966 9.45703C15.7138 9.32073 15.9083 9.27241 16.2962 9.17676ZM2.32063 10.0527C3.79798 9.06323 5.56016 8.77105 7.2054 9.17676C7.59314 9.27237 7.78689 9.32073 7.80403 9.45703C7.82092 9.59323 7.63158 9.69469 7.25325 9.89746C6.9662 10.0513 6.6846 10.212 6.47786 10.3398C5.98326 10.629 5.05223 11.1743 4.37923 11.8584C3.94494 12.2998 3.37328 13.0335 3.26692 14.043C3.23411 14.3547 3.24936 14.654 3.30306 14.9375C3.35675 15.221 3.38361 15.3631 3.31185 15.4375C3.24003 15.5117 3.12026 15.4934 2.88118 15.457C1.85753 15.3012 1.16572 14.7432 0.597978 14.1348C0.173494 13.6798 -0.0461417 13.1563 0.00813474 12.5967C0.0592002 12.0711 0.340429 11.6473 0.621416 11.3379C1.06479 10.8498 1.71826 10.4363 2.1097 10.1885C2.19333 10.1355 2.26555 10.0896 2.32063 10.0527ZM5.75032 2C5.91588 2.00001 6.07873 2.01224 6.23763 2.03613C6.42723 2.06465 6.52191 2.07942 6.57063 2.1582C6.61921 2.23699 6.58578 2.34162 6.5179 2.55078C6.34422 3.08594 6.25032 3.65696 6.25032 4.25C6.25032 5.48993 6.66062 6.63381 7.35286 7.55371C7.48478 7.729 7.55073 7.81705 7.5306 7.90723C7.51025 7.99751 7.42499 8.04197 7.25521 8.13086C6.80525 8.36643 6.29341 8.49995 5.75032 8.5C3.9554 8.5 2.50032 7.04492 2.50032 5.25C2.50032 3.45508 3.9554 2 5.75032 2ZM11.7503 0C14.0974 0.000153068 16.0003 1.90288 16.0003 4.25C16.0003 6.59712 14.0974 8.49985 11.7503 8.5C9.40311 8.5 7.50032 6.59721 7.50032 4.25C7.50032 1.90279 9.40311 0 11.7503 0ZM17.7503 2C19.5451 2.00012 21.0003 3.45515 21.0003 5.25C21.0003 7.04485 19.5451 8.49988 17.7503 8.5C17.2073 8.49993 16.6953 8.36636 16.2454 8.13086C16.0757 8.04202 15.9904 7.99746 15.97 7.90723C15.9499 7.81706 16.0159 7.72899 16.1478 7.55371C16.84 6.63382 17.2503 5.4899 17.2503 4.25C17.2503 3.65698 17.1564 3.08592 16.9827 2.55078C16.9149 2.34169 16.8815 2.23698 16.93 2.1582C16.9787 2.07952 17.0736 2.06463 17.263 2.03613C17.4218 2.01226 17.5849 2.00002 17.7503 2Z" fill="white"/>
</svg>
