<svg width="19" height="22" viewBox="0 0 19 22" fill="none" xmlns="http://www.w3.org/2000/svg">
<path d="M14.25 0C14.8023 0 15.25 0.447715 15.25 1V1.48242C16.0379 1.64954 16.7055 1.94574 17.2549 2.49512C17.93 3.17025 18.2259 4.02332 18.3652 5.05957C18.5001 6.06266 18.5 7.34174 18.5 8.94434V14.0557C18.5 15.6583 18.5001 16.9373 18.3652 17.9404C18.2259 18.9767 17.93 19.8298 17.2549 20.5049C16.5798 21.18 15.7267 21.4759 14.6904 21.6152C13.6873 21.7501 12.4083 21.75 10.8057 21.75H7.69434C6.09174 21.75 4.81266 21.7501 3.80957 21.6152C2.77332 21.4759 1.92025 21.18 1.24512 20.5049C0.569985 19.8298 0.27409 18.9767 0.134766 17.9404C-9.5561e-05 16.9373 -1.76438e-05 15.6583 0 14.0557L0 8.94434C-1.76438e-05 7.34175 -9.55611e-05 6.06265 0.134766 5.05957C0.27409 4.02332 0.569985 3.17025 1.24512 2.49512C1.7945 1.94574 2.46214 1.64954 3.25 1.48242V1C3.25 0.447715 3.69772 0 4.25 0C4.80228 0 5.25 0.447715 5.25 1V1.27637C5.9646 1.25105 6.77638 1.24999 7.69434 1.25L8.25 1.25V1C8.25 0.447715 8.69772 0 9.25 0C9.80228 0 10.25 0.447715 10.25 1V1.25L10.8057 1.25C11.7236 1.24999 12.5354 1.25105 13.25 1.27637V1C13.25 0.447715 13.6977 0 14.25 0ZM8.95703 13.75C8.81879 13.3597 8.39035 13.1549 8 13.293C7.51788 13.4637 7.07017 13.784 6.69141 14.1162C6.30489 14.4552 5.94611 14.8455 5.64453 15.207C5.49841 15.3822 5.36384 15.5534 5.24316 15.7119C5.15496 15.6293 5.06623 15.5595 4.97852 15.501C4.81964 15.3951 4.67052 15.3317 4.54199 15.2949C4.47825 15.2767 4.40039 15.2436 4.25 15.25C3.83579 15.25 3.5 15.5858 3.5 16C3.5 16.3747 3.77475 16.6854 4.13379 16.7412C4.13737 16.7433 4.14167 16.7458 4.14648 16.749C4.20217 16.7861 4.37367 16.9242 4.5791 17.335C4.69999 17.5767 4.94196 17.7352 5.21191 17.749C5.48151 17.7627 5.73784 17.63 5.88281 17.4023C5.92568 17.338 6.05167 17.1491 6.13281 17.0342C6.29562 16.8035 6.52638 16.4922 6.79687 16.168C7.06876 15.8421 7.37145 15.5135 7.67969 15.2432C7.9956 14.9661 8.2763 14.7863 8.5 14.707C8.89033 14.5688 9.09506 14.1404 8.95703 13.75ZM10.75 14.25C10.3358 14.25 10 14.5858 10 15C10 15.4142 10.3358 15.75 10.75 15.75L14.25 15.75C14.6642 15.75 15 15.4142 15 15C15 14.5858 14.6642 14.25 14.25 14.25L10.75 14.25ZM8.95703 6.75C8.81879 6.35967 8.39035 6.15494 8 6.29297C7.51788 6.46372 7.07017 6.78404 6.69141 7.11621C6.30489 7.45519 5.94611 7.84553 5.64453 8.20703C5.49841 8.38219 5.36384 8.55342 5.24316 8.71191C5.15496 8.62934 5.06623 8.55945 4.97852 8.50098C4.81964 8.39506 4.67052 8.33166 4.54199 8.29492C4.47825 8.27671 4.40039 8.24357 4.25 8.25C3.83579 8.25 3.5 8.58579 3.5 9C3.5 9.3747 3.77475 9.68537 4.13379 9.74121C4.13737 9.74334 4.14167 9.74581 4.14648 9.74902C4.20217 9.78614 4.37367 9.92424 4.5791 10.335C4.69999 10.5767 4.94196 10.7352 5.21191 10.749C5.48151 10.7627 5.73784 10.63 5.88281 10.4023C5.92568 10.338 6.05167 10.1491 6.13281 10.0342C6.29562 9.80353 6.52638 9.49222 6.79687 9.16797C7.06876 8.84207 7.37145 8.51349 7.67969 8.24316C7.9956 7.96611 8.2763 7.78635 8.5 7.70703C8.89033 7.56879 9.09506 7.14035 8.95703 6.75ZM10.75 7.25C10.3358 7.25 10 7.58579 10 8C10 8.41421 10.3358 8.75 10.75 8.75L14.25 8.75C14.6642 8.75 15 8.41421 15 8C15 7.58579 14.6642 7.25 14.25 7.25L10.75 7.25Z" fill="#A1A1A1"/>
</svg>
