<svg width="170" height="147" viewBox="0 0 170 147" fill="none" xmlns="http://www.w3.org/2000/svg">
<rect x="7.5" width="155" height="147" rx="12" fill="#0A6FCC"/>
<rect width="170" height="20" rx="8" fill="#0B7BE3"/>
<path d="M53.3081 83.16C52.1348 83.16 51.1268 82.9253 50.2841 82.456C49.4521 81.976 48.8121 81.304 48.3641 80.44C47.9161 79.5653 47.6921 78.536 47.6921 77.352C47.6921 76.4667 47.8201 75.672 48.0761 74.968C48.3321 74.2533 48.7001 73.6453 49.1801 73.144C49.6601 72.632 50.2468 72.2427 50.9401 71.976C51.6441 71.6987 52.4335 71.56 53.3081 71.56C53.8948 71.56 54.4708 71.6347 55.0361 71.784C55.6015 71.9333 56.0975 72.1467 56.5241 72.424C56.7481 72.5627 56.8975 72.7333 56.9721 72.936C57.0468 73.128 57.0628 73.32 57.0201 73.512C56.9775 73.6933 56.8868 73.848 56.7481 73.976C56.6201 74.104 56.4548 74.1787 56.2521 74.2C56.0601 74.2107 55.8468 74.1413 55.6121 73.992C55.2815 73.7787 54.9241 73.624 54.5401 73.528C54.1561 73.432 53.7668 73.384 53.3721 73.384C52.6148 73.384 51.9748 73.5387 51.4521 73.848C50.9295 74.1573 50.5348 74.6053 50.2681 75.192C50.0015 75.7787 49.8681 76.4987 49.8681 77.352C49.8681 78.1947 50.0015 78.9147 50.2681 79.512C50.5348 80.1093 50.9295 80.5627 51.4521 80.872C51.9748 81.1813 52.6148 81.336 53.3721 81.336C53.7775 81.336 54.1775 81.288 54.5721 81.192C54.9668 81.0853 55.3401 80.9253 55.6921 80.712C55.9268 80.5733 56.1348 80.5147 56.3161 80.536C56.5081 80.5467 56.6681 80.6107 56.7961 80.728C56.9241 80.8453 57.0095 80.9947 57.0521 81.176C57.0948 81.3467 57.0841 81.528 57.0201 81.72C56.9561 81.9013 56.8281 82.0613 56.6361 82.2C56.2095 82.5093 55.6975 82.7493 55.1001 82.92C54.5135 83.08 53.9161 83.16 53.3081 83.16ZM61.7486 83.16C60.938 83.16 60.234 82.9947 59.6366 82.664C59.0393 82.3333 58.5753 81.864 58.2446 81.256C57.914 80.6373 57.7486 79.912 57.7486 79.08C57.7486 78.4507 57.8393 77.8907 58.0206 77.4C58.2126 76.8987 58.4846 76.472 58.8366 76.12C59.1886 75.7573 59.61 75.4853 60.1006 75.304C60.5913 75.112 61.1406 75.016 61.7486 75.016C62.5593 75.016 63.2633 75.1813 63.8606 75.512C64.458 75.8427 64.922 76.312 65.2526 76.92C65.5833 77.528 65.7486 78.248 65.7486 79.08C65.7486 79.7093 65.6526 80.2747 65.4606 80.776C65.2793 81.2773 65.0126 81.7093 64.6606 82.072C64.3086 82.424 63.8873 82.696 63.3966 82.888C62.906 83.0693 62.3566 83.16 61.7486 83.16ZM61.7486 81.64C62.1433 81.64 62.49 81.544 62.7886 81.352C63.0873 81.16 63.3166 80.8773 63.4766 80.504C63.6473 80.12 63.7326 79.6453 63.7326 79.08C63.7326 78.2267 63.5513 77.592 63.1886 77.176C62.826 76.7493 62.346 76.536 61.7486 76.536C61.354 76.536 61.0073 76.632 60.7086 76.824C60.41 77.0053 60.1753 77.288 60.0046 77.672C59.8446 78.0453 59.7646 78.5147 59.7646 79.08C59.7646 79.9227 59.946 80.5627 60.3086 81C60.6713 81.4267 61.1513 81.64 61.7486 81.64ZM70.2314 83.16C69.5807 83.16 69.042 83.0427 68.6154 82.808C68.1887 82.5627 67.8687 82.2 67.6554 81.72C67.4527 81.24 67.3514 80.6427 67.3514 79.928V76.056C67.3514 75.7147 67.4367 75.464 67.6074 75.304C67.778 75.1333 68.0234 75.048 68.3434 75.048C68.6634 75.048 68.9087 75.1333 69.0794 75.304C69.2607 75.464 69.3514 75.7147 69.3514 76.056V79.96C69.3514 80.5147 69.4634 80.9253 69.6874 81.192C69.9114 81.4587 70.2687 81.592 70.7594 81.592C71.2927 81.592 71.73 81.4107 72.0714 81.048C72.4127 80.6747 72.5834 80.184 72.5834 79.576V76.056C72.5834 75.7147 72.6687 75.464 72.8394 75.304C73.01 75.1333 73.2554 75.048 73.5754 75.048C73.8954 75.048 74.1407 75.1333 74.3114 75.304C74.4927 75.464 74.5834 75.7147 74.5834 76.056V82.104C74.5834 82.7867 74.258 83.128 73.6074 83.128C73.298 83.128 73.058 83.0427 72.8874 82.872C72.7167 82.6907 72.6314 82.4347 72.6314 82.104V80.888L72.8554 81.368C72.6314 81.944 72.29 82.3867 71.8314 82.696C71.3834 83.0053 70.85 83.16 70.2314 83.16ZM77.657 83.128C77.337 83.128 77.0917 83.0427 76.921 82.872C76.7503 82.6907 76.665 82.4347 76.665 82.104V76.056C76.665 75.7253 76.7503 75.4747 76.921 75.304C77.0917 75.1333 77.3317 75.048 77.641 75.048C77.9503 75.048 78.1903 75.1333 78.361 75.304C78.5317 75.4747 78.617 75.7253 78.617 76.056V77.144L78.441 76.744C78.6757 76.1787 79.0383 75.752 79.529 75.464C80.0303 75.1653 80.5957 75.016 81.225 75.016C81.8543 75.016 82.3717 75.1333 82.777 75.368C83.1823 75.6027 83.4863 75.96 83.689 76.44C83.8917 76.9093 83.993 77.5067 83.993 78.232V82.104C83.993 82.4347 83.9077 82.6907 83.737 82.872C83.5663 83.0427 83.321 83.128 83.001 83.128C82.681 83.128 82.4303 83.0427 82.249 82.872C82.0783 82.6907 81.993 82.4347 81.993 82.104V78.328C81.993 77.72 81.8757 77.2773 81.641 77C81.417 76.7227 81.065 76.584 80.585 76.584C79.9983 76.584 79.529 76.7707 79.177 77.144C78.8357 77.5067 78.665 77.992 78.665 78.6V82.104C78.665 82.7867 78.329 83.128 77.657 83.128ZM89.6084 83.16C88.915 83.16 88.3337 83.0427 87.8644 82.808C87.4057 82.5733 87.0644 82.232 86.8404 81.784C86.6164 81.3253 86.5044 80.76 86.5044 80.088V76.68H85.6724C85.4164 76.68 85.219 76.616 85.0804 76.488C84.9417 76.3493 84.8724 76.1627 84.8724 75.928C84.8724 75.6827 84.9417 75.496 85.0804 75.368C85.219 75.24 85.4164 75.176 85.6724 75.176H86.5044V73.72C86.5044 73.3893 86.5897 73.1387 86.7604 72.968C86.9417 72.7973 87.1924 72.712 87.5124 72.712C87.8324 72.712 88.0777 72.7973 88.2484 72.968C88.419 73.1387 88.5044 73.3893 88.5044 73.72V75.176H90.2004C90.4564 75.176 90.6537 75.24 90.7924 75.368C90.931 75.496 91.0004 75.6827 91.0004 75.928C91.0004 76.1627 90.931 76.3493 90.7924 76.488C90.6537 76.616 90.4564 76.68 90.2004 76.68H88.5044V79.976C88.5044 80.488 88.6164 80.872 88.8404 81.128C89.0644 81.384 89.427 81.512 89.9284 81.512C90.1097 81.512 90.2697 81.496 90.4084 81.464C90.547 81.432 90.6697 81.4107 90.7764 81.4C90.9044 81.3893 91.011 81.432 91.0964 81.528C91.1817 81.6133 91.2244 81.7947 91.2244 82.072C91.2244 82.2853 91.187 82.4773 91.1124 82.648C91.0484 82.808 90.9257 82.92 90.7444 82.984C90.6057 83.0267 90.4244 83.064 90.2004 83.096C89.9764 83.1387 89.779 83.16 89.6084 83.16ZM94.741 83.16C94.1757 83.16 93.669 83.0533 93.221 82.84C92.7837 82.616 92.437 82.3173 92.181 81.944C91.9357 81.5707 91.813 81.1493 91.813 80.68C91.813 80.104 91.9623 79.6507 92.261 79.32C92.5597 78.9787 93.045 78.7333 93.717 78.584C94.389 78.4347 95.2903 78.36 96.421 78.36H97.221V79.512H96.437C95.7757 79.512 95.2477 79.544 94.853 79.608C94.4583 79.672 94.1757 79.784 94.005 79.944C93.845 80.0933 93.765 80.3067 93.765 80.584C93.765 80.936 93.8877 81.224 94.133 81.448C94.3783 81.672 94.7197 81.784 95.157 81.784C95.509 81.784 95.8183 81.704 96.085 81.544C96.3623 81.3733 96.581 81.144 96.741 80.856C96.901 80.568 96.981 80.2373 96.981 79.864V78.024C96.981 77.4907 96.8637 77.1067 96.629 76.872C96.3943 76.6373 95.9997 76.52 95.445 76.52C95.1357 76.52 94.7997 76.5573 94.437 76.632C94.085 76.7067 93.7117 76.8347 93.317 77.016C93.1143 77.112 92.933 77.1387 92.773 77.096C92.6237 77.0533 92.5063 76.968 92.421 76.84C92.3357 76.7013 92.293 76.552 92.293 76.392C92.293 76.232 92.3357 76.0773 92.421 75.928C92.5063 75.768 92.6503 75.6507 92.853 75.576C93.3437 75.3733 93.813 75.2293 94.261 75.144C94.7197 75.0587 95.1357 75.016 95.509 75.016C96.277 75.016 96.9063 75.1333 97.397 75.368C97.8983 75.6027 98.2717 75.96 98.517 76.44C98.7623 76.9093 98.885 77.5173 98.885 78.264V82.104C98.885 82.4347 98.805 82.6907 98.645 82.872C98.485 83.0427 98.2557 83.128 97.957 83.128C97.6583 83.128 97.4237 83.0427 97.253 82.872C97.093 82.6907 97.013 82.4347 97.013 82.104V81.336H97.141C97.0663 81.7093 96.917 82.0347 96.693 82.312C96.4797 82.5787 96.2077 82.7867 95.877 82.936C95.5463 83.0853 95.1677 83.16 94.741 83.16ZM105.427 83.16C104.766 83.16 104.184 82.9947 103.683 82.664C103.192 82.3333 102.867 81.8907 102.707 81.336L102.883 80.936V82.104C102.883 82.4347 102.798 82.6907 102.627 82.872C102.456 83.0427 102.216 83.128 101.907 83.128C101.587 83.128 101.342 83.0427 101.171 82.872C101 82.6907 100.915 82.4347 100.915 82.104V72.6C100.915 72.2693 101 72.0187 101.171 71.848C101.342 71.6773 101.587 71.592 101.907 71.592C102.227 71.592 102.472 71.6773 102.643 71.848C102.824 72.0187 102.915 72.2693 102.915 72.6V76.76H102.723C102.894 76.2373 103.224 75.816 103.715 75.496C104.206 75.176 104.776 75.016 105.427 75.016C106.12 75.016 106.723 75.1813 107.235 75.512C107.747 75.8427 108.147 76.312 108.435 76.92C108.723 77.5173 108.867 78.2373 108.867 79.08C108.867 79.912 108.723 80.6373 108.435 81.256C108.147 81.864 107.742 82.3333 107.219 82.664C106.707 82.9947 106.11 83.16 105.427 83.16ZM104.867 81.64C105.262 81.64 105.608 81.544 105.907 81.352C106.206 81.16 106.435 80.8773 106.595 80.504C106.766 80.12 106.851 79.6453 106.851 79.08C106.851 78.2267 106.67 77.592 106.307 77.176C105.944 76.7493 105.464 76.536 104.867 76.536C104.472 76.536 104.126 76.632 103.827 76.824C103.528 77.0053 103.294 77.288 103.123 77.672C102.963 78.0453 102.883 78.5147 102.883 79.08C102.883 79.9227 103.064 80.5627 103.427 81C103.79 81.4267 104.27 81.64 104.867 81.64ZM113.181 83.16C112.295 83.16 111.629 82.9093 111.181 82.408C110.733 81.896 110.509 81.1493 110.509 80.168V72.6C110.509 72.2693 110.594 72.0187 110.765 71.848C110.935 71.6773 111.181 71.592 111.501 71.592C111.821 71.592 112.066 71.6773 112.237 71.848C112.418 72.0187 112.509 72.2693 112.509 72.6V80.072C112.509 80.5627 112.61 80.9253 112.813 81.16C113.026 81.3947 113.325 81.512 113.709 81.512C113.794 81.512 113.874 81.512 113.949 81.512C114.023 81.5013 114.098 81.4907 114.173 81.48C114.322 81.4587 114.423 81.5013 114.477 81.608C114.53 81.704 114.557 81.9067 114.557 82.216C114.557 82.4827 114.503 82.6907 114.397 82.84C114.29 82.9893 114.114 83.08 113.869 83.112C113.762 83.1227 113.65 83.1333 113.533 83.144C113.415 83.1547 113.298 83.16 113.181 83.16ZM119.396 83.16C118.511 83.16 117.748 82.9947 117.108 82.664C116.468 82.3333 115.972 81.864 115.62 81.256C115.279 80.648 115.108 79.928 115.108 79.096C115.108 78.2853 115.273 77.576 115.604 76.968C115.945 76.36 116.409 75.8853 116.996 75.544C117.593 75.192 118.271 75.016 119.028 75.016C119.583 75.016 120.079 75.1067 120.516 75.288C120.964 75.4693 121.343 75.7307 121.652 76.072C121.972 76.4133 122.212 76.8293 122.372 77.32C122.543 77.8 122.628 78.344 122.628 78.952C122.628 79.144 122.559 79.2933 122.42 79.4C122.292 79.496 122.105 79.544 121.86 79.544H116.724V78.392H121.22L120.964 78.632C120.964 78.1413 120.889 77.7307 120.74 77.4C120.601 77.0693 120.393 76.8187 120.116 76.648C119.849 76.4667 119.513 76.376 119.108 76.376C118.66 76.376 118.276 76.4827 117.956 76.696C117.647 76.8987 117.407 77.192 117.236 77.576C117.076 77.9493 116.996 78.3973 116.996 78.92V79.032C116.996 79.9067 117.199 80.5627 117.604 81C118.02 81.4267 118.628 81.64 119.428 81.64C119.705 81.64 120.015 81.608 120.356 81.544C120.708 81.4693 121.039 81.3467 121.348 81.176C121.572 81.048 121.769 80.9947 121.94 81.016C122.111 81.0267 122.244 81.0853 122.34 81.192C122.447 81.2987 122.511 81.432 122.532 81.592C122.553 81.7413 122.521 81.896 122.436 82.056C122.361 82.216 122.228 82.3547 122.036 82.472C121.663 82.7067 121.231 82.8827 120.74 83C120.26 83.1067 119.812 83.16 119.396 83.16Z" fill="white"/>
</svg>
