<svg width="170" height="147" viewBox="0 0 170 147" fill="none" xmlns="http://www.w3.org/2000/svg">
<rect x="7.5" width="155" height="147" rx="12" fill="#CF7C0E"/>
<rect width="170" height="20" rx="8" fill="#F08614"/>
<path d="M43.6231 83.16C42.8445 83.16 42.1565 83.0587 41.5591 82.856C40.9725 82.6533 40.4765 82.3547 40.0711 81.96C39.6658 81.5547 39.3618 81.0533 39.1591 80.456C38.9565 79.8587 38.8551 79.1653 38.8551 78.376V72.632C38.8551 72.28 38.9405 72.0187 39.1111 71.848C39.2925 71.6773 39.5485 71.592 39.8791 71.592C40.2098 71.592 40.4605 71.6773 40.6311 71.848C40.8125 72.0187 40.9031 72.28 40.9031 72.632V78.36C40.9031 79.3733 41.1325 80.136 41.5911 80.648C42.0605 81.1493 42.7378 81.4 43.6231 81.4C44.5085 81.4 45.1805 81.1493 45.6391 80.648C46.0978 80.136 46.3271 79.3733 46.3271 78.36V72.632C46.3271 72.28 46.4125 72.0187 46.5831 71.848C46.7645 71.6773 47.0205 71.592 47.3511 71.592C47.6711 71.592 47.9165 71.6773 48.0871 71.848C48.2685 72.0187 48.3591 72.28 48.3591 72.632V78.376C48.3591 79.4213 48.1778 80.3013 47.8151 81.016C47.4631 81.7307 46.9351 82.2693 46.2311 82.632C45.5271 82.984 44.6578 83.16 43.6231 83.16ZM51.5476 83.128C51.2276 83.128 50.9823 83.0427 50.8116 82.872C50.641 82.6907 50.5556 82.4347 50.5556 82.104V76.056C50.5556 75.7253 50.641 75.4747 50.8116 75.304C50.9823 75.1333 51.2223 75.048 51.5316 75.048C51.841 75.048 52.081 75.1333 52.2516 75.304C52.4223 75.4747 52.5076 75.7253 52.5076 76.056V77.144L52.3316 76.744C52.5663 76.1787 52.929 75.752 53.4196 75.464C53.921 75.1653 54.4863 75.016 55.1156 75.016C55.745 75.016 56.2623 75.1333 56.6676 75.368C57.073 75.6027 57.377 75.96 57.5796 76.44C57.7823 76.9093 57.8836 77.5067 57.8836 78.232V82.104C57.8836 82.4347 57.7983 82.6907 57.6276 82.872C57.457 83.0427 57.2116 83.128 56.8916 83.128C56.5716 83.128 56.321 83.0427 56.1396 82.872C55.969 82.6907 55.8836 82.4347 55.8836 82.104V78.328C55.8836 77.72 55.7663 77.2773 55.5316 77C55.3076 76.7227 54.9556 76.584 54.4756 76.584C53.889 76.584 53.4196 76.7707 53.0676 77.144C52.7263 77.5067 52.5556 77.992 52.5556 78.6V82.104C52.5556 82.7867 52.2196 83.128 51.5476 83.128ZM63.531 83.16C62.7097 83.16 61.995 82.9947 61.387 82.664C60.779 82.3227 60.3097 81.8427 59.979 81.224C59.6483 80.6053 59.483 79.88 59.483 79.048C59.483 78.4187 59.5737 77.8587 59.755 77.368C59.947 76.8667 60.219 76.4453 60.571 76.104C60.923 75.752 61.3497 75.4853 61.851 75.304C62.3523 75.112 62.9123 75.016 63.531 75.016C63.883 75.016 64.2617 75.064 64.667 75.16C65.083 75.256 65.4723 75.416 65.835 75.64C66.0057 75.7467 66.1177 75.8747 66.171 76.024C66.2243 76.1733 66.235 76.328 66.203 76.488C66.171 76.6373 66.1017 76.7707 65.995 76.888C65.899 76.9947 65.7763 77.064 65.627 77.096C65.4777 77.1173 65.3123 77.08 65.131 76.984C64.8963 76.8453 64.6563 76.744 64.411 76.68C64.1657 76.6053 63.931 76.568 63.707 76.568C63.355 76.568 63.0457 76.6267 62.779 76.744C62.5123 76.8507 62.283 77.0107 62.091 77.224C61.9097 77.4267 61.771 77.6827 61.675 77.992C61.579 78.3013 61.531 78.6587 61.531 79.064C61.531 79.8533 61.7177 80.4773 62.091 80.936C62.475 81.384 63.0137 81.608 63.707 81.608C63.931 81.608 64.1603 81.576 64.395 81.512C64.6403 81.448 64.8857 81.3467 65.131 81.208C65.3123 81.112 65.4723 81.08 65.611 81.112C65.7603 81.144 65.883 81.2187 65.979 81.336C66.075 81.4427 66.1337 81.576 66.155 81.736C66.1763 81.8853 66.155 82.0347 66.091 82.184C66.0377 82.3333 65.931 82.456 65.771 82.552C65.419 82.7653 65.0457 82.92 64.651 83.016C64.2563 83.112 63.883 83.16 63.531 83.16ZM70.8736 83.16C70.063 83.16 69.359 82.9947 68.7616 82.664C68.1643 82.3333 67.7003 81.864 67.3696 81.256C67.039 80.6373 66.8736 79.912 66.8736 79.08C66.8736 78.4507 66.9643 77.8907 67.1456 77.4C67.3376 76.8987 67.6096 76.472 67.9616 76.12C68.3136 75.7573 68.735 75.4853 69.2256 75.304C69.7163 75.112 70.2656 75.016 70.8736 75.016C71.6843 75.016 72.3883 75.1813 72.9856 75.512C73.583 75.8427 74.047 76.312 74.3776 76.92C74.7083 77.528 74.8736 78.248 74.8736 79.08C74.8736 79.7093 74.7776 80.2747 74.5856 80.776C74.4043 81.2773 74.1376 81.7093 73.7856 82.072C73.4336 82.424 73.0123 82.696 72.5216 82.888C72.031 83.0693 71.4816 83.16 70.8736 83.16ZM70.8736 81.64C71.2683 81.64 71.615 81.544 71.9136 81.352C72.2123 81.16 72.4416 80.8773 72.6016 80.504C72.7723 80.12 72.8576 79.6453 72.8576 79.08C72.8576 78.2267 72.6763 77.592 72.3136 77.176C71.951 76.7493 71.471 76.536 70.8736 76.536C70.479 76.536 70.1323 76.632 69.8336 76.824C69.535 77.0053 69.3003 77.288 69.1296 77.672C68.9696 78.0453 68.8896 78.5147 68.8896 79.08C68.8896 79.9227 69.071 80.5627 69.4336 81C69.7963 81.4267 70.2763 81.64 70.8736 81.64ZM79.3564 83.16C78.7057 83.16 78.167 83.0427 77.7404 82.808C77.3137 82.5627 76.9937 82.2 76.7804 81.72C76.5777 81.24 76.4764 80.6427 76.4764 79.928V76.056C76.4764 75.7147 76.5617 75.464 76.7324 75.304C76.903 75.1333 77.1484 75.048 77.4684 75.048C77.7884 75.048 78.0337 75.1333 78.2044 75.304C78.3857 75.464 78.4764 75.7147 78.4764 76.056V79.96C78.4764 80.5147 78.5884 80.9253 78.8124 81.192C79.0364 81.4587 79.3937 81.592 79.8844 81.592C80.4177 81.592 80.855 81.4107 81.1964 81.048C81.5377 80.6747 81.7084 80.184 81.7084 79.576V76.056C81.7084 75.7147 81.7937 75.464 81.9644 75.304C82.135 75.1333 82.3804 75.048 82.7004 75.048C83.0204 75.048 83.2657 75.1333 83.4364 75.304C83.6177 75.464 83.7084 75.7147 83.7084 76.056V82.104C83.7084 82.7867 83.383 83.128 82.7324 83.128C82.423 83.128 82.183 83.0427 82.0124 82.872C81.8417 82.6907 81.7564 82.4347 81.7564 82.104V80.888L81.9804 81.368C81.7564 81.944 81.415 82.3867 80.9564 82.696C80.5084 83.0053 79.975 83.16 79.3564 83.16ZM86.782 83.128C86.462 83.128 86.2167 83.0427 86.046 82.872C85.8753 82.6907 85.79 82.4347 85.79 82.104V76.056C85.79 75.7253 85.8753 75.4747 86.046 75.304C86.2167 75.1333 86.4567 75.048 86.766 75.048C87.0753 75.048 87.3153 75.1333 87.486 75.304C87.6567 75.4747 87.742 75.7253 87.742 76.056V77.144L87.566 76.744C87.8007 76.1787 88.1633 75.752 88.654 75.464C89.1553 75.1653 89.7207 75.016 90.35 75.016C90.9793 75.016 91.4967 75.1333 91.902 75.368C92.3073 75.6027 92.6113 75.96 92.814 76.44C93.0167 76.9093 93.118 77.5067 93.118 78.232V82.104C93.118 82.4347 93.0327 82.6907 92.862 82.872C92.6913 83.0427 92.446 83.128 92.126 83.128C91.806 83.128 91.5553 83.0427 91.374 82.872C91.2033 82.6907 91.118 82.4347 91.118 82.104V78.328C91.118 77.72 91.0007 77.2773 90.766 77C90.542 76.7227 90.19 76.584 89.71 76.584C89.1233 76.584 88.654 76.7707 88.302 77.144C87.9607 77.5067 87.79 77.992 87.79 78.6V82.104C87.79 82.7867 87.454 83.128 86.782 83.128ZM98.7334 83.16C98.04 83.16 97.4587 83.0427 96.9894 82.808C96.5307 82.5733 96.1894 82.232 95.9654 81.784C95.7414 81.3253 95.6294 80.76 95.6294 80.088V76.68H94.7974C94.5414 76.68 94.344 76.616 94.2054 76.488C94.0667 76.3493 93.9974 76.1627 93.9974 75.928C93.9974 75.6827 94.0667 75.496 94.2054 75.368C94.344 75.24 94.5414 75.176 94.7974 75.176H95.6294V73.72C95.6294 73.3893 95.7147 73.1387 95.8854 72.968C96.0667 72.7973 96.3174 72.712 96.6374 72.712C96.9574 72.712 97.2027 72.7973 97.3734 72.968C97.544 73.1387 97.6294 73.3893 97.6294 73.72V75.176H99.3254C99.5814 75.176 99.7787 75.24 99.9174 75.368C100.056 75.496 100.125 75.6827 100.125 75.928C100.125 76.1627 100.056 76.3493 99.9174 76.488C99.7787 76.616 99.5814 76.68 99.3254 76.68H97.6294V79.976C97.6294 80.488 97.7414 80.872 97.9654 81.128C98.1894 81.384 98.552 81.512 99.0534 81.512C99.2347 81.512 99.3947 81.496 99.5334 81.464C99.672 81.432 99.7947 81.4107 99.9014 81.4C100.029 81.3893 100.136 81.432 100.221 81.528C100.307 81.6133 100.349 81.7947 100.349 82.072C100.349 82.2853 100.312 82.4773 100.237 82.648C100.173 82.808 100.051 82.92 99.8694 82.984C99.7307 83.0267 99.5494 83.064 99.3254 83.096C99.1014 83.1387 98.904 83.16 98.7334 83.16ZM103.866 83.16C103.301 83.16 102.794 83.0533 102.346 82.84C101.909 82.616 101.562 82.3173 101.306 81.944C101.061 81.5707 100.938 81.1493 100.938 80.68C100.938 80.104 101.087 79.6507 101.386 79.32C101.685 78.9787 102.17 78.7333 102.842 78.584C103.514 78.4347 104.415 78.36 105.546 78.36H106.346V79.512H105.562C104.901 79.512 104.373 79.544 103.978 79.608C103.583 79.672 103.301 79.784 103.13 79.944C102.97 80.0933 102.89 80.3067 102.89 80.584C102.89 80.936 103.013 81.224 103.258 81.448C103.503 81.672 103.845 81.784 104.282 81.784C104.634 81.784 104.943 81.704 105.21 81.544C105.487 81.3733 105.706 81.144 105.866 80.856C106.026 80.568 106.106 80.2373 106.106 79.864V78.024C106.106 77.4907 105.989 77.1067 105.754 76.872C105.519 76.6373 105.125 76.52 104.57 76.52C104.261 76.52 103.925 76.5573 103.562 76.632C103.21 76.7067 102.837 76.8347 102.442 77.016C102.239 77.112 102.058 77.1387 101.898 77.096C101.749 77.0533 101.631 76.968 101.546 76.84C101.461 76.7013 101.418 76.552 101.418 76.392C101.418 76.232 101.461 76.0773 101.546 75.928C101.631 75.768 101.775 75.6507 101.978 75.576C102.469 75.3733 102.938 75.2293 103.386 75.144C103.845 75.0587 104.261 75.016 104.634 75.016C105.402 75.016 106.031 75.1333 106.522 75.368C107.023 75.6027 107.397 75.96 107.642 76.44C107.887 76.9093 108.01 77.5173 108.01 78.264V82.104C108.01 82.4347 107.93 82.6907 107.77 82.872C107.61 83.0427 107.381 83.128 107.082 83.128C106.783 83.128 106.549 83.0427 106.378 82.872C106.218 82.6907 106.138 82.4347 106.138 82.104V81.336H106.266C106.191 81.7093 106.042 82.0347 105.818 82.312C105.605 82.5787 105.333 82.7867 105.002 82.936C104.671 83.0853 104.293 83.16 103.866 83.16ZM114.552 83.16C113.891 83.16 113.309 82.9947 112.808 82.664C112.317 82.3333 111.992 81.8907 111.832 81.336L112.008 80.936V82.104C112.008 82.4347 111.923 82.6907 111.752 82.872C111.581 83.0427 111.341 83.128 111.032 83.128C110.712 83.128 110.467 83.0427 110.296 82.872C110.125 82.6907 110.04 82.4347 110.04 82.104V72.6C110.04 72.2693 110.125 72.0187 110.296 71.848C110.467 71.6773 110.712 71.592 111.032 71.592C111.352 71.592 111.597 71.6773 111.768 71.848C111.949 72.0187 112.04 72.2693 112.04 72.6V76.76H111.848C112.019 76.2373 112.349 75.816 112.84 75.496C113.331 75.176 113.901 75.016 114.552 75.016C115.245 75.016 115.848 75.1813 116.36 75.512C116.872 75.8427 117.272 76.312 117.56 76.92C117.848 77.5173 117.992 78.2373 117.992 79.08C117.992 79.912 117.848 80.6373 117.56 81.256C117.272 81.864 116.867 82.3333 116.344 82.664C115.832 82.9947 115.235 83.16 114.552 83.16ZM113.992 81.64C114.387 81.64 114.733 81.544 115.032 81.352C115.331 81.16 115.56 80.8773 115.72 80.504C115.891 80.12 115.976 79.6453 115.976 79.08C115.976 78.2267 115.795 77.592 115.432 77.176C115.069 76.7493 114.589 76.536 113.992 76.536C113.597 76.536 113.251 76.632 112.952 76.824C112.653 77.0053 112.419 77.288 112.248 77.672C112.088 78.0453 112.008 78.5147 112.008 79.08C112.008 79.9227 112.189 80.5627 112.552 81C112.915 81.4267 113.395 81.64 113.992 81.64ZM122.306 83.16C121.42 83.16 120.754 82.9093 120.306 82.408C119.858 81.896 119.634 81.1493 119.634 80.168V72.6C119.634 72.2693 119.719 72.0187 119.89 71.848C120.06 71.6773 120.306 71.592 120.626 71.592C120.946 71.592 121.191 71.6773 121.362 71.848C121.543 72.0187 121.634 72.2693 121.634 72.6V80.072C121.634 80.5627 121.735 80.9253 121.938 81.16C122.151 81.3947 122.45 81.512 122.834 81.512C122.919 81.512 122.999 81.512 123.074 81.512C123.148 81.5013 123.223 81.4907 123.298 81.48C123.447 81.4587 123.548 81.5013 123.602 81.608C123.655 81.704 123.682 81.9067 123.682 82.216C123.682 82.4827 123.628 82.6907 123.522 82.84C123.415 82.9893 123.239 83.08 122.994 83.112C122.887 83.1227 122.775 83.1333 122.658 83.144C122.54 83.1547 122.423 83.16 122.306 83.16ZM128.521 83.16C127.636 83.16 126.873 82.9947 126.233 82.664C125.593 82.3333 125.097 81.864 124.745 81.256C124.404 80.648 124.233 79.928 124.233 79.096C124.233 78.2853 124.398 77.576 124.729 76.968C125.07 76.36 125.534 75.8853 126.121 75.544C126.718 75.192 127.396 75.016 128.153 75.016C128.708 75.016 129.204 75.1067 129.641 75.288C130.089 75.4693 130.468 75.7307 130.777 76.072C131.097 76.4133 131.337 76.8293 131.497 77.32C131.668 77.8 131.753 78.344 131.753 78.952C131.753 79.144 131.684 79.2933 131.545 79.4C131.417 79.496 131.23 79.544 130.985 79.544H125.849V78.392H130.345L130.089 78.632C130.089 78.1413 130.014 77.7307 129.865 77.4C129.726 77.0693 129.518 76.8187 129.241 76.648C128.974 76.4667 128.638 76.376 128.233 76.376C127.785 76.376 127.401 76.4827 127.081 76.696C126.772 76.8987 126.532 77.192 126.361 77.576C126.201 77.9493 126.121 78.3973 126.121 78.92V79.032C126.121 79.9067 126.324 80.5627 126.729 81C127.145 81.4267 127.753 81.64 128.553 81.64C128.83 81.64 129.14 81.608 129.481 81.544C129.833 81.4693 130.164 81.3467 130.473 81.176C130.697 81.048 130.894 80.9947 131.065 81.016C131.236 81.0267 131.369 81.0853 131.465 81.192C131.572 81.2987 131.636 81.432 131.657 81.592C131.678 81.7413 131.646 81.896 131.561 82.056C131.486 82.216 131.353 82.3547 131.161 82.472C130.788 82.7067 130.356 82.8827 129.865 83C129.385 83.1067 128.937 83.16 128.521 83.16Z" fill="white"/>
</svg>
