<svg width="32" height="32" viewBox="0 0 32 32" fill="none" xmlns="http://www.w3.org/2000/svg">
<path d="M12.4232 3.71535C15.0309 3.6499 16.9688 3.64989 19.5765 3.71535L19.6761 3.71828C21.6885 3.76874 23.3444 3.81031 24.679 4.0425C25.1727 4.1284 25.6387 4.24289 26.0784 4.39797C26.1952 4.42547 26.3078 4.46779 26.4124 4.52492C27.1002 4.81007 27.722 5.20984 28.2864 5.7759C29.2857 6.77798 29.7638 7.94593 30.0062 9.34035C30.2336 10.6489 30.2682 12.2639 30.3099 14.2183L30.3118 14.3189C30.3293 15.1365 30.3363 15.719 30.3323 16.355C30.3277 17.091 29.7154 17.6754 28.9798 17.6597C28.2442 17.6439 27.6642 17.0343 27.6683 16.2984C27.6716 15.7027 27.6643 15.1518 27.6478 14.3765C27.6264 13.3773 27.6073 12.5312 27.5726 11.8023C27.5468 11.2618 27.5339 10.9912 27.3382 10.8833C27.1425 10.7757 26.9021 10.9125 26.4212 11.1851L20.7728 14.3853C19.04 15.3674 17.5743 16.0034 15.9993 16.0034C14.4246 16.0033 12.9595 15.3673 11.2269 14.3853L5.57941 11.1851C5.0982 10.9123 4.8572 10.7755 4.66144 10.8833C4.46566 10.9913 4.45286 11.2624 4.42707 11.8032C4.39232 12.5321 4.3732 13.3775 4.35187 14.3765C4.32428 15.6693 4.32427 16.3384 4.35187 17.6314C4.39628 19.7118 4.43052 21.1245 4.61945 22.2114C4.79738 23.2348 5.09415 23.8429 5.60187 24.3521C6.10431 24.8559 6.72026 25.1583 7.77766 25.3423C8.89523 25.5367 10.3533 25.5767 12.4905 25.6304C13.2657 25.6498 13.9797 25.6627 14.6693 25.6704C15.404 25.6787 15.9992 26.2743 15.9993 27.0093C15.9993 27.7444 15.4041 28.3415 14.6693 28.3335C13.9581 28.3258 13.2225 28.3116 12.4241 28.2915L12.3236 28.2886C10.3112 28.2381 8.65517 28.1966 7.32062 27.9644C5.90437 27.7179 4.7186 27.2382 3.71418 26.231C2.7149 25.2289 2.23587 24.061 1.99348 22.6665C1.76603 21.3579 1.73143 19.743 1.68976 17.7886L1.68781 17.688C1.6594 16.3571 1.6594 15.6498 1.68781 14.3189L1.68976 14.2183C1.73142 12.2639 1.76601 10.6489 1.99348 9.34035C2.23587 7.9459 2.71492 6.778 3.71418 5.7759C4.71858 4.76878 5.9044 4.28894 7.32062 4.0425C8.65518 3.8103 10.3112 3.76874 12.3236 3.71828L12.4232 3.71535ZM25.2337 19.1519C25.9895 18.7853 26.6568 19.1878 26.8011 19.2749L26.806 19.2779C27.01 19.4008 27.2377 19.58 27.4251 19.7271L27.4661 19.7583C27.9672 20.1511 28.6128 20.6603 29.1341 21.1675C29.3942 21.4206 29.6626 21.7103 29.8743 22.0181C30.0626 22.2918 30.3333 22.7593 30.3333 23.3335C30.3332 23.9075 30.0626 24.3743 29.8743 24.648C29.6626 24.9558 29.3942 25.2455 29.1341 25.4986C28.6129 26.0057 27.9672 26.5149 27.4661 26.9077L27.4251 26.94C27.2378 27.087 27.0099 27.2663 26.806 27.3892L26.8011 27.3921C26.6568 27.4792 25.9895 27.8818 25.2337 27.5152C24.4797 27.1493 24.3836 26.381 24.3626 26.2124V26.2085C24.3332 25.9733 24.3332 25.6849 24.3333 25.4507V24.6743H18.3333C17.597 24.6743 17.0005 24.0776 17.0003 23.3413C17.0003 22.605 17.597 22.0074 18.3333 22.0073H24.3333V21.2154C24.3332 20.9812 24.3332 20.6937 24.3626 20.4585V20.4536C24.3837 20.2845 24.4803 19.5176 25.2337 19.1519Z" fill="#999FAB"/>
</svg>
