<svg width="28" height="24" viewBox="0 0 28 24" fill="none" xmlns="http://www.w3.org/2000/svg">
<path d="M16.7569 1.47615C16.4907 1.03032 16.0936 0.657427 15.6079 0.397399C15.1223 0.13737 14.5665 0 14 0C13.4335 0 12.8777 0.13737 12.3921 0.397399C11.9064 0.657427 11.5093 1.03032 11.2431 1.47615L0.344943 19.9676C0.101124 20.3891 -0.0169842 20.8595 0.00196955 21.3334C0.0209233 21.8074 0.176302 22.2691 0.453173 22.674C0.730043 23.079 1.1191 23.4137 1.58294 23.6459C2.04679 23.8781 2.56983 24.0001 3.1018 24H24.8982C25.4302 24.0001 25.9532 23.8781 26.4171 23.6459C26.8809 23.4137 27.27 23.079 27.5468 22.674C27.8237 22.2691 27.9791 21.8074 27.998 21.3334C28.017 20.8595 27.8989 20.3891 27.6551 19.9676L16.7569 1.47615ZM14 20.6397C13.574 20.6397 13.1576 20.527 12.8034 20.3161C12.4492 20.1051 12.1732 19.8052 12.0102 19.4543C11.8471 19.1034 11.8045 18.7173 11.8876 18.3449C11.9707 17.9724 12.1758 17.6302 12.477 17.3617C12.7783 17.0931 13.162 16.9103 13.5798 16.8362C13.9976 16.7621 14.4307 16.8001 14.8242 16.9454C15.2178 17.0908 15.5542 17.3369 15.7908 17.6527C16.0275 17.9684 16.1538 18.3397 16.1538 18.7195C16.1538 19.2287 15.9269 19.7171 15.523 20.0773C15.119 20.4374 14.5712 20.6397 14 20.6397ZM12.3847 7.67837C12.3847 7.29642 12.5548 6.93011 12.8578 6.66003C13.1607 6.38995 13.5716 6.23823 14 6.23823C14.4284 6.23823 14.8393 6.38995 15.1422 6.66003C15.4452 6.93011 15.6153 7.29642 15.6153 7.67837V13.4389C15.6153 13.8209 15.4452 14.1872 15.1422 14.4573C14.8393 14.7274 14.4284 14.8791 14 14.8791C13.5716 14.8791 13.1607 14.7274 12.8578 14.4573C12.5548 14.1872 12.3847 13.8209 12.3847 13.4389V7.67837Z" fill="#FF6702"/>
</svg>
