<svg width="28" height="24" viewBox="0 0 28 24" fill="none" xmlns="http://www.w3.org/2000/svg">
<path d="M27.8228 3.70066L24.3516 0.179729C24.2357 0.0645275 24.08 0 23.9177 0C23.7555 0 23.5997 0.0645275 23.4838 0.179729L8.85519 15.0179C8.73932 15.1331 8.58354 15.1977 8.42129 15.1977C8.25904 15.1977 8.10326 15.1331 7.98739 15.0179L4.51619 11.497C4.40032 11.3818 4.24454 11.3173 4.08229 11.3173C3.92004 11.3173 3.76426 11.3818 3.64839 11.497L0.177191 15.0179C0.0636161 15.1355 0 15.2935 0 15.4581C0 15.6226 0.0636161 15.7806 0.177191 15.8982L7.98739 23.8203C8.10326 23.9355 8.25904 24 8.42129 24C8.58354 24 8.73932 23.9355 8.85519 23.8203L27.8228 4.58089C27.9364 4.46336 28 4.30535 28 4.14078C28 3.9762 27.9364 3.81819 27.8228 3.70066Z" fill="#1FB65D"/>
</svg>
